# AST/ASF file generated using VICON BodyLanguage
# -----------------------------------------------
:version 1.10
:name VICON
:units
  mass 1.0
  length 0.45
  angle deg
:documentation
   .ast/.asf automatically generated from VICON data using
   VICON BodyBuilder and BodyLanguage model FoxedUp or BRILLIANT.MOD
:root
   order TX TY TZ RX RY RZ
   axis XYZ
   position 0 0 0  
   orientation 0 0 0 
:bonedata
  begin
     id 1 
     name lhipjoint
     direction 0.690799 -0.707083 0.151096 
     length 2.54797 
     axis 0 0 0  XYZ
  end
  begin
     id 2 
     name lfemur
     direction 0.34202 -0.939693 0  
     length 7.21646  
     axis 0 0 20  XYZ
    dof rx ry rz
    limits (-160.0 20.0)
           (-70.0 70.0)
           (-60.0 70.0)
  end
  begin
     id 3 
     name ltibia
     direction 0.34202 -0.939693 0   
     length 8.16759   
     axis 0 0 20   XYZ
    dof rx
    limits (-10.0 170.0)
  end
  begin
     id 4 
     name lfoot
     direction 0.0487203 -0.133858 0.989802   
     length 1.93375   
     axis -90 7.62852e-016 20   XYZ
    dof rx rz
    limits (-45.0 90.0)
           (-70.0 20.0)
  end
  begin
     id 5 
     name ltoes
     direction 1.53453e-011 -4.21783e-011 1   
     length 0.979747   
     axis -90 7.62852e-016 20   XYZ
    dof rx
    limits (-90.0 20.0)
  end
  begin
     id 6 
     name rhipjoint
     direction -0.694693 -0.703425 0.150315   
     length 2.56122  
     axis 0 0 0  XYZ 
  end
  begin
     id 7 
     name rfemur
     direction -0.34202 -0.939693 0   
     length 7.36786   
     axis 0 0 -20   XYZ
    dof rx ry rz
    limits (-160.0 20.0)
           (-70.0 70.0)
           (-70.0 60.0)
  end
  begin
     id 8 
     name rtibia
     direction -0.34202 -0.939693 0   
     length 8.07288   
     axis 0 0 -20   XYZ
    dof rx
    limits (-10.0 170.0)
 end
 begin
     id 9 
     name rfoot
     direction -0.0428397 -0.117701 0.992125   
     length 1.88295  
     axis -90 -7.62852e-016 -20   XYZ
    dof rx rz
    limits (-45.0 90.0)
           (-20.0 70.0)
  end
  begin
     id 10 
     name rtoes
     direction -1.53456e-011 -4.2187e-011 1   
     length 0.955578   
     axis -90 -7.62852e-016 -20   XYZ
    dof rx
    limits (-90.0 20.0)
  end
  begin
     id 11 
     name lowerback
     direction 0.0288145 0.999398 -0.0193241   
     length 1.92149   
     axis 0 0 0   XYZ
    dof rx ry rz
    limits (-20.0 45.0)
           (-30.0 30.0)
           (-30.0 30.0)
  end
  begin
     id 12 
     name upperback
     direction 0.0233784 0.998099 0.0570278   
     length 1.90435   
     axis 0 0 0   XYZ
    dof rx ry rz
    limits (-20.0 45.0)
           (-30.0 30.0)
           (-30.0 30.0)
  end
  begin
     id 13 
     name thorax
     direction 0.0096694 0.997833 0.0650817   
     length 1.9111   
     axis 0 0 0   XYZ
    dof rx ry rz
    limits (-20.0 45.0)
           (-30.0 30.0)
           (-30.0 30.0)
  end
  begin
     id 14 
     name lowerneck
     direction 0.00516803 0.999916 0.0118722   
     length 1.74664   
     axis 0 0 0   XYZ
    dof rx ry rz
    limits (-20.0 45.0)
           (-30.0 30.0)
           (-30.0 30.0)
  end
  begin
     id 15 
     name upperneck
     direction -0.0510851 0.996117 -0.071696   
     length 1.68498   
     axis 0 0 0   XYZ
    dof rx ry rz
    limits (-20.0 45.0)
           (-30.0 30.0)
           (-30.0 30.0)
  end
  begin
     id 16
     name head
     direction -0.019188 0.999436 -0.0275702  
     length 1.83483  
     axis 0 0 0   XYZ
    dof rx ry rz
    limits (-20.0 45.0)
           (-30.0 30.0)
           (-30.0 30.0)
  end
  begin
     id 17 
     name lclavicle
     direction 0.967006 0.248456 -0.0562957  
     length 3.39395  
     axis 0 0 0   XYZ
    dof ry rz
    limits (-20.0 10.0)
           (0.0 20.0)
  end
  begin
     id 18 
     name lhumerus
     direction 1 -4.48962e-011 -5.62711e-019   
     length 5.24318   
     axis 180 -30 -90   XYZ
    dof rx ry rz
    limits (-60.0 90.0)
           (-90.0 90.0)
           (-90.0 90.0)
  end
  begin
     id 19
     name lradius
     direction 1 -4.48966e-011 7.90625e-027   
     length 2.98999   
     axis 180 -30 -90   XYZ
    dof rx
    limits (-10.0 170.0)
  end
  begin
     id 20
     name lwrist
     direction 1 -4.48959e-011 1.61068e-026   
     length 1.49499   
     axis -9.31229e-015 90 90   XYZ
    dof ry
    limits (-180.0 0.0)
 end
  begin
     id 21 
     name lhand
     direction 1 -4.49017e-011 3.22136e-026   
     length 0.726745   
     axis -2.0555e-014 90 90   XYZ
    dof rx rz
    limits (-90.0 90.0)
           (-45.0 45.0)
  end
  begin
     id 22 
     name lfingers
     direction 1 -4.4898e-011 6.44272e-026   
     length 0.58592   
     axis -4.11101e-014 90 90   XYZ
    dof rx
    limits (0.0 90.0)
  end
  begin
     id 23
     name lthumb
     direction 0.707107 -6.34922e-011 0.707107   
     length 0.841268   
     axis -90 45 2.85299e-015   XYZ
    dof rx rz
    limits (-45.0 45.0)
           (-45.0 45.0)
  end
  begin
     id 24 
     name rclavicle
     direction -0.972232 0.230238 0.0419005   
     length 3.40416  
     axis 0 0 0   XYZ 
    dof ry rz
    limits (-10.0 20.0)
           (-20.0 0.0)
  end
  begin
     id 25 
     name rhumerus
     direction -1 -4.48976e-011 2.48487e-027  
     length 5.37045   
     axis 180 30 90   XYZ
    dof rx ry rz
    limits (-90.0 60.0)
           (-90.0 90.0)
           (-90.0 90.0)
  end
  begin
     id 26 
     name rradius
     direction -1 -4.48942e-011 7.87951e-027   
     length 2.92792   
     axis 180 30 90   XYZ
    dof rx
    limits (-10.0 170.0)
  end
  begin
     id 27 
     name rwrist
     direction -1 -4.48969e-011 1.61068e-026   
     length 1.46396   
     axis -9.31229e-015 -90 -90   XYZ
    dof ry
    limits (-180.0 0.0)
  end
  begin
     id 28
     name rhand
     direction -1 -4.49043e-011 3.22136e-026   
     length 0.784497   
     axis -2.0555e-014 -90 -90   XYZ
    dof rx rz
    limits (-90.0 90.0)
           (-45.0 45.0)
  end
  begin
     id 29
     name rfingers
     direction -1 -4.48823e-011 6.44272e-026   
     length 0.632482   
     axis -4.11101e-014 -90 -90   XYZ
    dof rx
    limits (0.0 90.0)
  end
  begin
     id 30
     name rthumb
     direction -0.707107 -6.34923e-011 0.707107   
     length 0.908121   
     axis -90 -45 -2.85299e-015   XYZ
    dof rx rz
    limits (-45.0 45.0)
           (-45.0 45.0)
  end
:hierarchy
  begin
    root lhipjoint rhipjoint lowerback
    lhipjoint lfemur
    lfemur ltibia
    ltibia lfoot
    lfoot ltoes
    rhipjoint rfemur
    rfemur rtibia
    rtibia rfoot
    rfoot rtoes
    lowerback upperback
    upperback thorax
    thorax lowerneck lclavicle rclavicle
    lowerneck upperneck
    upperneck head
    lclavicle lhumerus
    lhumerus lradius
    lradius lwrist
    lwrist lhand lthumb
    lhand lfingers
    rclavicle rhumerus
    rhumerus rradius
    rradius rwrist
    rwrist rhand rthumb
    rhand rfingers
  end

#!OML:ASF E:\Style6\Style6.ASF
:FULLY-SPECIFIED
:DEGREES
1622
root 1.11951 16.9426 -1.26099 0.355134 -11.5073 -2.55037
lowerback 4.63533 -0.413609 3.88795
upperback 17.0055 -1.15095 2.02528
thorax 16.3523 -0.277214 0.014795
lowerneck 8.18382 0.458828 0.87283
upperneck -3.10297 0.32252 -7.0761
head -2.42771 0.375171 -2.47552
rclavicle 2.62396e-014 -5.56597e-015
rhumerus 48.4622 26.3008 -44.2748
rradius 31.4568
rwrist 14.226
rhand 5.43383 3.0896
rfingers 7.12502
rthumb 30.7837 -24.3529
lclavicle 2.62396e-014 -5.56597e-015
lhumerus 46.503 -28.3982 39.8627
lradius 33.447
lwrist -2.47447
lhand -4.02908 23.8727
lfingers 7.12502
lthumb 21.726 52.6735
rfemur -30.6949 -2.86497 19.8637
rtibia 46.1609
rfoot -9.08009 -0.458883
rtoes -9.04468
lfemur -28.027 11.5991 -17.9223
ltibia 52.4054
lfoot -17.0261 8.04931
ltoes -14.8783
1623
root 1.12342 16.9408 -1.25833 0.404981 -11.4784 -2.57402
lowerback 4.64275 -0.453628 3.90142
upperback 16.9765 -1.20579 2.03977
thorax 16.3076 -0.303785 0.0181736
lowerneck 8.16198 0.515989 0.774117
upperneck -3.07296 0.391531 -7.05604
head -2.40984 0.409136 -2.45283
rclavicle -1.35174e-014 -1.55052e-014
rhumerus 48.5412 26.441 -44.1527
rradius 31.5098
rwrist 14.2577
rhand 5.33605 3.02395
rfingers 7.12502
rthumb 30.6905 -24.4361
lclavicle -1.35174e-014 -1.55052e-014
lhumerus 46.4169 -28.3861 39.8675
lradius 33.4634
lwrist -2.43817
lhand -4.07061 23.8553
lfingers 7.12502
lthumb 21.6861 52.6607
rfemur -30.7414 -2.9123 19.8778
rtibia 46.1688
rfoot -9.08901 -0.393948
rtoes -8.55468
lfemur -28.1024 11.5855 -17.9189
ltibia 52.4406
lfoot -17.0506 8.02271
ltoes -14.7757
1624
root 1.12522 16.9394 -1.25593 0.442826 -11.4754 -2.64039
lowerback 4.67472 -0.457507 3.96467
upperback 16.9813 -1.21431 2.0551
thorax 16.2939 -0.300872 0.000137622
lowerneck 8.08496 0.531403 0.705512
upperneck -3.07457 0.40896 -7.0005
head -2.39451 0.415678 -2.42115
rclavicle -7.55382e-015 -1.11319e-014
rhumerus 48.6056 26.4829 -44.033
rradius 31.5356
rwrist 14.2467
rhand 5.16854 2.9487
rfingers 7.12502
rthumb 30.5307 -24.5412
lclavicle -7.55382e-015 -1.11319e-014
lhumerus 46.4605 -28.3634 39.8012
lradius 33.5005
lwrist -2.44819
lhand -4.18124 23.8217
lfingers 7.12502
lthumb 21.5799 52.6394
rfemur -30.7681 -2.90059 19.9429
rtibia 46.1771
rfoot -9.09575 -0.390073
rtoes -8.46402
lfemur -28.1417 11.5923 -17.8552
ltibia 52.4672
lfoot -17.1085 7.98514
ltoes -14.4987
1625
root 1.1263 16.9407 -1.25295 0.432367 -11.4636 -2.63967
lowerback 4.73019 -0.445689 3.97639
upperback 16.9925 -1.19544 2.05223
thorax 16.2734 -0.290086 -0.00732456
lowerneck 8.02555 0.51497 0.651908
upperneck -3.05457 0.386791 -6.93871
head -2.37701 0.402019 -2.3883
rclavicle -3.57812e-015 2.06736e-014
rhumerus 48.5882 26.396 -44.0929
rradius 31.4893
rwrist 14.408
rhand 5.1087 3.06609
rfingers 7.12502
rthumb 30.4736 -24.4344
lclavicle -3.57812e-015 2.06736e-014
lhumerus 46.5383 -28.3485 39.7934
lradius 33.4674
lwrist -2.55669
lhand -4.18479 23.7023
lfingers 7.12502
lthumb 21.5765 52.5203
rfemur -30.7485 -2.91699 19.943
rtibia 46.1822
rfoot -9.10579 -0.447783
rtoes -9.20945
lfemur -28.1268 11.6128 -17.8584
ltibia 52.4801
lfoot -17.1335 7.95034
ltoes -14.4516
1626
root 1.12764 16.9399 -1.25029 0.42681 -11.4528 -2.6082
lowerback 4.75152 -0.437934 3.95799
upperback 16.9897 -1.17908 2.02609
thorax 16.2554 -0.282149 -0.0251339
lowerneck 8.12778 0.512497 0.688322
upperneck -3.1065 0.383062 -6.93429
head -2.41368 0.402414 -2.39572
rclavicle -9.54166e-015 1.63003e-014
rhumerus 48.6143 26.3373 -44.137
rradius 31.4373
rwrist 14.4908
rhand 5.19759 3.11694
rfingers 7.12502
rthumb 30.5584 -24.3678
lclavicle -9.54166e-015 1.63003e-014
lhumerus 46.5867 -28.3806 39.7195
lradius 33.4788
lwrist -2.61475
lhand -4.08334 23.632
lfingers 7.12502
lthumb 21.6739 52.4388
rfemur -30.7548 -2.94083 19.9026
rtibia 46.1993
rfoot -9.11521 -0.441641
rtoes -9.16236
lfemur -28.1232 11.6435 -17.8992
ltibia 52.4769
lfoot -17.1253 7.93842
ltoes -14.6406
1627
root 1.13049 16.9393 -1.2467 0.436572 -11.4509 -2.64555
lowerback 4.73332 -0.453885 4.02426
upperback 17.0065 -1.20356 2.00483
thorax 16.2885 -0.281918 -0.0876166
lowerneck 8.15418 0.536971 0.733807
upperneck -3.11764 0.41703 -6.98059
head -2.42141 0.420812 -2.42177
rclavicle 1.23246e-014 -3.10104e-014
rhumerus 48.7323 26.3584 -44.0473
rradius 31.4296
rwrist 14.429
rhand 5.22508 3.08665
rfingers 7.12502
rthumb 30.5846 -24.3932
lclavicle 1.23246e-014 -3.10104e-014
lhumerus 46.6679 -28.4161 39.5321
lradius 33.4894
lwrist -2.53201
lhand -4.04005 23.6575
lfingers 7.12502
lthumb 21.7155 52.4595
rfemur -30.7558 -2.95117 19.9292
rtibia 46.2212
rfoot -9.12664 -0.438326
rtoes -9.08132
lfemur -28.1162 11.6846 -17.8748
ltibia 52.4713
lfoot -17.1295 7.93258
ltoes -14.7912
